<?xml version="1.0" encoding="UTF-8"?><svg id="Lag_2" xmlns="http://www.w3.org/2000/svg" xmlns:xlink="http://www.w3.org/1999/xlink" viewBox="0 0 772.1 117.19"><defs><style>.cls-1{clip-path:url(#clippath);}.cls-2,.cls-3,.cls-4{fill:#21005a;}.cls-5{clip-path:url(#clippath-1);}.cls-6{clip-path:url(#clippath-4);}.cls-7{clip-path:url(#clippath-3);}.cls-8{clip-path:url(#clippath-2);}.cls-9{clip-path:url(#clippath-7);}.cls-10{clip-path:url(#clippath-8);}.cls-11{clip-path:url(#clippath-6);}.cls-12{clip-path:url(#clippath-5);}.cls-13{clip-path:url(#clippath-9);}.cls-14{clip-path:url(#clippath-10);}.cls-15{clip-path:url(#clippath-11);}.cls-3,.cls-16{stroke-miterlimit:10;}.cls-3,.cls-16,.cls-4{stroke:#000;}.cls-16{fill:none;}.cls-4{stroke-linecap:round;stroke-linejoin:round;stroke-width:.72px;}</style><clipPath id="clippath"><rect class="cls-3" x="169.86" y="85.75" width="135.39" height="30.94"/></clipPath><clipPath id="clippath-1"><rect class="cls-3" x="466.22" y="30.87" width="136.09" height="85.72"/></clipPath><clipPath id="clippath-2"><rect class="cls-3" x="305.81" y="30.82" width="159.41" height="54.47"/></clipPath><clipPath id="clippath-3"><rect class="cls-3" x=".51" y="85.89" width="168.42" height="30.64"/></clipPath><clipPath id="clippath-4"><rect class="cls-3" x="603.18" y="29.44" width="168.42" height="87.13"/></clipPath><clipPath id="clippath-5"><rect class="cls-3" x="305.55" y="85.62" width="160.49" height="31.04"/></clipPath><clipPath id="clippath-6"><rect class="cls-3" x=".5" y="31.04" width="168.02" height="54.22"/></clipPath><clipPath id="clippath-7"><rect class="cls-3" x="169.62" y="31.04" width="135.38" height="54.22"/></clipPath><clipPath id="clippath-8"><rect class="cls-3" x=".78" y=".5" width="195.03" height="30.54"/></clipPath><clipPath id="clippath-9"><rect class="cls-3" x="194.1" y=".5" width="191.83" height="29.55"/></clipPath><clipPath id="clippath-10"><rect class="cls-3" x="386.17" y=".5" width="193.09" height="30.54"/></clipPath><clipPath id="clippath-11"><rect class="cls-3" x="579.52" y=".5" width="191.83" height="30.54"/></clipPath></defs><g id="Lag_1-2"><g onclick="javascript:{                 var event = document.createEvent(&apos;Event&apos;);                 event.initEvent(&apos;sectionClicked&apos;, true, true);                                  this.dispatchEvent(event);}"><rect class="cls-2" x="169.86" y="85.75" width="135.39" height="30.94"/><g class="cls-1"><path class="cls-3" d="m168.42,117.09h138.29v-31.74h-138.29v31.74Z"/></g><rect class="cls-16" x="169.86" y="85.75" width="135.39" height="30.94"/><path class="cls-4" d="m169.86,116.69h135.39v-30.94h-135.39v30.94Z"/></g><g onclick="javascript:{                 var event = document.createEvent(&apos;Event&apos;);                 event.initEvent(&apos;sectionClicked&apos;, true, true);                 this.dispatchEvent(event);}"><rect class="cls-2" x="466.22" y="30.87" width="136.09" height="85.72"/><g class="cls-5"><path class="cls-3" d="m464.76,117.71h139V29.76h-139v87.95Z"/></g><rect class="cls-16" x="466.22" y="30.87" width="136.09" height="85.72"/><path class="cls-4" d="m466.22,116.6h136.09V30.87h-136.09v85.72Z"/></g><g onclick="javascript:{                 var event = document.createEvent(&apos;Event&apos;);                 event.initEvent(&apos;sectionClicked&apos;, true, true);                 this.dispatchEvent(event);}"><rect class="cls-2" x="305.81" y="30.82" width="159.41" height="54.47"/><g class="cls-8"><path class="cls-3" d="m304.11,86h162.82V30.12h-162.82v55.89Z"/></g><rect class="cls-16" x="305.81" y="30.82" width="159.41" height="54.47"/><path class="cls-4" d="m305.81,85.29h159.41V30.82h-159.41v54.47Z"/></g><g onclick="javascript:{                 var event = document.createEvent(&apos;Event&apos;);                 event.initEvent(&apos;sectionClicked&apos;, true, true);                 this.dispatchEvent(event);}"><rect class="cls-2" x=".51" y="85.89" width="168.42" height="30.64"/><g class="cls-7"><path class="cls-3" d="m.51,116.53h168.42v-30.64H.51v30.64Z"/></g><rect class="cls-16" x=".51" y="85.89" width="168.42" height="30.64"/><path class="cls-4" d="m.51,116.53h168.42v-30.64H.51v30.64Z"/></g><g onclick="javascript:{                 var event = document.createEvent(&apos;Event&apos;);                 event.initEvent(&apos;sectionClicked&apos;, true, true);                 this.dispatchEvent(event);}"><rect class="cls-2" x="603.18" y="29.44" width="168.42" height="87.13"/><g class="cls-6"><path class="cls-3" d="m601.38,117.7h172.02V28.31h-172.02v89.39Z"/></g><rect class="cls-16" x="603.18" y="29.44" width="168.42" height="87.13"/><path class="cls-4" d="m603.18,116.57h168.42V29.44h-168.42v87.13Z"/></g><g onclick="javascript:{                 var event = document.createEvent(&apos;Event&apos;);                 event.initEvent(&apos;sectionClicked&apos;, true, true);                 this.dispatchEvent(event);}"><rect class="cls-2" x="305.55" y="85.62" width="160.49" height="31.04"/><g class="cls-12"><path class="cls-3" d="m303.83,117.06h163.92v-31.85h-163.92v31.85Z"/></g><rect class="cls-16" x="305.55" y="85.62" width="160.49" height="31.04"/><path class="cls-4" d="m305.55,116.66h160.49v-31.04h-160.49v31.04Z"/></g><g onclick="javascript:{                 var event = document.createEvent(&apos;Event&apos;);                 event.initEvent(&apos;sectionClicked&apos;, true, true);                 this.dispatchEvent(event);}"><rect class="cls-2" x=".5" y="31.04" width="168.02" height="54.22"/><g class="cls-11"><path class="cls-3" d="m.5,85.25h168.02V31.04H.5v54.22Z"/></g><rect class="cls-16" x=".5" y="31.04" width="168.02" height="54.22"/><path class="cls-4" d="m.5,85.25h168.02V31.04H.5v54.22Z"/></g><g onclick="javascript:{                 var event = document.createEvent(&apos;Event&apos;);                 event.initEvent(&apos;sectionClicked&apos;, true, true);                 this.dispatchEvent(event);}"><rect class="cls-2" x="169.62" y="31.04" width="135.38" height="54.22"/><g class="cls-9"><path class="cls-3" d="m168.17,85.95h138.27V30.33h-138.27v55.62Z"/></g><rect class="cls-16" x="169.62" y="31.04" width="135.38" height="54.22"/><path class="cls-4" d="m169.62,85.25h135.38V31.04h-135.38v54.22Z"/></g><g onclick="javascript:{                 var event = document.createEvent(&apos;Event&apos;);                 event.initEvent(&apos;sectionClicked&apos;, true, true);                 this.dispatchEvent(event);}"><rect class="cls-2" x=".78" y=".5" width="195.03" height="30.54"/><g class="cls-10"><path class="cls-3" d="m-1.31,31.43h199.2V.1H-1.31v31.33Z"/></g><rect class="cls-16" x=".78" y=".5" width="195.03" height="30.54"/><path class="cls-4" d="m.78,31.04h195.03V.5H.78v30.54Z"/></g><g onclick="javascript:{                 var event = document.createEvent(&apos;Event&apos;);                 event.initEvent(&apos;sectionClicked&apos;, true, true);                 this.dispatchEvent(event);}"><rect class="cls-2" x="194.1" y=".5" width="191.83" height="29.55"/><g class="cls-13"><path class="cls-3" d="m192.05,30.44h195.93V.12h-195.93v30.32Z"/></g><rect class="cls-16" x="194.1" y=".5" width="191.83" height="29.55"/><path class="cls-3" d="m194.1,30.05h191.83V.5h-191.83v29.55Z"/></g><g onclick="javascript:{                 var event = document.createEvent(&apos;Event&apos;);                 event.initEvent(&apos;sectionClicked&apos;, true, true);                 this.dispatchEvent(event);}"><rect class="cls-2" x="386.17" y=".5" width="193.09" height="30.54"/><g class="cls-14"><path class="cls-3" d="m384.11,31.43h197.22V.1h-197.22v31.33Z"/></g><rect class="cls-16" x="386.17" y=".5" width="193.09" height="30.54"/><path class="cls-3" d="m386.17,31.04h193.09V.5h-193.09v30.54Z"/></g><g onclick="javascript:{                 var event = document.createEvent(&apos;Event&apos;);                 event.initEvent(&apos;sectionClicked&apos;, true, true);                 this.dispatchEvent(event);}"><rect class="cls-2" x="579.52" y=".5" width="191.83" height="30.54"/><g class="cls-15"><path class="cls-3" d="m577.47,31.43h195.93V.1h-195.93v31.33Z"/></g><rect class="cls-16" x="579.52" y=".5" width="191.83" height="30.54"/><path class="cls-3" d="m579.52,31.04h191.83V.5h-191.83v30.54Z"/></g></g></svg>