<?xml version="1.0" encoding="UTF-8"?><svg id="Lag_2" xmlns="http://www.w3.org/2000/svg" xmlns:xlink="http://www.w3.org/1999/xlink" viewBox="0 0 733.74 469.02"><defs><style>.cls-1{clip-path:url(#clippath);}.cls-2{fill:url(#Ikke-navngivet_forløb_10);}.cls-2,.cls-3{stroke-miterlimit:10;}.cls-2,.cls-3,.cls-4{stroke:#000;}.cls-3,.cls-4{fill:none;}.cls-4{stroke-linecap:round;stroke-linejoin:round;stroke-width:2.16px;}</style><clipPath id="clippath"><rect class="cls-3" x="1.08" y="1.08" width="731.58" height="466.86"/></clipPath><linearGradient id="Ikke-navngivet_forløb_10" x1="-269.05" y1="561.62" x2="86.06" y2="561.62" gradientTransform="translate(556.17 1451.31) scale(2.07 -2.17)" gradientUnits="userSpaceOnUse"><stop offset="0" stop-color="#3c3"/><stop offset="1" stop-color="#3c3"/></linearGradient></defs><g id="Lag_1-2"><g id="Football-field"><g class="cls-1"><path class="cls-2" d="m-.47,469.56h734.68V-.54H-.47v470.11Z"/></g><rect class="cls-3" x="1.08" y="1.08" width="731.58" height="466.86"/><path class="cls-4" d="m1.08,467.94h731.58V1.08H1.08v466.86Z"/><path class="cls-3" d="m20.12,447.9h692.02V17.99H20.12v429.9Z"/><path class="cls-4" d="m20.12,447.9h692.02V17.99H20.12v429.9Z"/><path class="cls-3" d="m20.12,319.07h79.12v-178.1H20.12v178.1Z"/><path class="cls-4" d="m20.12,319.07h79.12v-178.1H20.12v178.1Z"/><path class="cls-3" d="m20.12,269.33h30.45v-71.24h-30.45v71.24Z"/><path class="cls-4" d="m20.12,269.33h30.45v-71.24h-30.45v71.24Z"/><path class="cls-3" d="m414.94,227.9c0-27.98-21.66-50.67-48.37-50.67s-48.39,22.68-48.39,50.67,21.66,50.68,48.39,50.68,48.37-22.68,48.37-50.68Z"/><path class="cls-4" d="m414.94,227.9c0-27.98-21.66-50.67-48.37-50.67s-48.39,22.68-48.39,50.67,21.66,50.68,48.39,50.68,48.37-22.68,48.37-50.68Z"/><path class="cls-4" d="m367.54,18.07v429.92"/><path class="cls-3" d="m99.24,257.67c12.96,0,23.46-11.01,23.46-24.57h0c0-15.27-10.5-27.64-23.46-27.64h0v52.21Z"/><path class="cls-4" d="m99.24,257.67c12.96,0,23.46-11.01,23.46-24.57h0c0-15.27-10.5-27.64-23.46-27.64h0v52.21Z"/><path class="cls-3" d="m712.03,319.07h-79.11v-178.1h79.11v178.1Z"/><path class="cls-4" d="m712.03,319.07h-79.11v-178.1h79.11v178.1Z"/><path class="cls-3" d="m712.03,269.33h-30.43v-71.24h30.43v71.24Z"/><path class="cls-4" d="m712.03,269.33h-30.43v-71.24h30.43v71.24Z"/><path class="cls-3" d="m632.91,257.67c-12.95,0-23.46-11.01-23.46-24.57h0c0-15.27,10.51-27.64,23.46-27.64h0v52.21Z"/><path class="cls-4" d="m632.91,257.67c-12.95,0-23.46-11.01-23.46-24.57h0c0-15.27,10.51-27.64,23.46-27.64h0v52.21Z"/></g></g></svg>