<?xml version="1.0" encoding="UTF-8"?><svg id="Lag_2" xmlns="http://www.w3.org/2000/svg" xmlns:xlink="http://www.w3.org/1999/xlink" viewBox="0 0 860.16 729.87"><defs><style>.cls-1,.cls-2,.cls-3,.cls-4,.cls-5,.cls-6,.cls-7,.cls-8,.cls-9,.cls-10,.cls-11,.cls-12,.cls-13,.cls-14,.cls-15,.cls-16,.cls-17{stroke:#000;}.cls-1,.cls-15,.cls-16{fill:none;}.cls-1,.cls-16,.cls-17{stroke-linecap:round;stroke-linejoin:round;}.cls-1,.cls-17{stroke-width:.72px;}.cls-18{letter-spacing:-.01em;}.cls-2{fill:url(#Ikke-navngivet_forløb_47-2);}.cls-2,.cls-3,.cls-4,.cls-5,.cls-6,.cls-7,.cls-8,.cls-9,.cls-10,.cls-11,.cls-12,.cls-13,.cls-14,.cls-15{stroke-miterlimit:10;}.cls-3{fill:url(#Ikke-navngivet_forløb_47-3);}.cls-4{fill:url(#Ikke-navngivet_forløb_49-8);}.cls-5{fill:url(#Ikke-navngivet_forløb_49-2);}.cls-6{fill:url(#Ikke-navngivet_forløb_49-3);}.cls-7{fill:url(#Ikke-navngivet_forløb_49-4);}.cls-8{fill:url(#Ikke-navngivet_forløb_49-7);}.cls-9{fill:url(#Ikke-navngivet_forløb_49-5);}.cls-10{fill:url(#Ikke-navngivet_forløb_49-6);}.cls-19{clip-path:url(#clippath);}.cls-20,.cls-14,.cls-17{fill:#21005a;}.cls-21{font-size:66.08px;}.cls-21,.cls-22,.cls-23{fill:#fff;font-family:MyriadPro-Regular, 'Myriad Pro';}.cls-22{font-size:33.35px;}.cls-11{fill:url(#Ikke-navngivet_forløb_47);}.cls-12{fill:url(#Ikke-navngivet_forløb_10);}.cls-13{fill:url(#Ikke-navngivet_forløb_49);}.cls-24{clip-path:url(#clippath-1);}.cls-25{clip-path:url(#clippath-4);}.cls-26{clip-path:url(#clippath-3);}.cls-27{clip-path:url(#clippath-2);}.cls-28{clip-path:url(#clippath-7);}.cls-29{clip-path:url(#clippath-8);}.cls-30{clip-path:url(#clippath-6);}.cls-31{clip-path:url(#clippath-5);}.cls-32{clip-path:url(#clippath-9);}.cls-33{clip-path:url(#clippath-20);}.cls-34{clip-path:url(#clippath-21);}.cls-35{clip-path:url(#clippath-23);}.cls-36{clip-path:url(#clippath-22);}.cls-37{clip-path:url(#clippath-14);}.cls-38{clip-path:url(#clippath-13);}.cls-39{clip-path:url(#clippath-12);}.cls-40{clip-path:url(#clippath-10);}.cls-41{clip-path:url(#clippath-15);}.cls-42{clip-path:url(#clippath-17);}.cls-43{clip-path:url(#clippath-16);}.cls-44{clip-path:url(#clippath-19);}.cls-45{clip-path:url(#clippath-11);}.cls-46{clip-path:url(#clippath-18);}.cls-23{font-size:26.22px;}.cls-16{stroke-width:2.16px;}.cls-47{letter-spacing:0em;}.cls-48{letter-spacing:0em;}</style><clipPath id="clippath"><rect class="cls-15" x="109.37" y="148.4" width="731.58" height="466.86"/></clipPath><linearGradient id="Ikke-navngivet_forløb_10" x1="-160.76" y1="708.94" x2="194.35" y2="708.94" gradientTransform="translate(440.42 1917.81) scale(2.07 -2.17)" gradientUnits="userSpaceOnUse"><stop offset="0" stop-color="#3c3"/><stop offset="1" stop-color="#3c3"/></linearGradient><clipPath id="clippath-1"><rect class="cls-14" x="257.92" y="85.75" width="135.39" height="30.94"/></clipPath><clipPath id="clippath-2"><rect class="cls-14" x="554.27" y="30.87" width="136.09" height="85.72"/></clipPath><clipPath id="clippath-3"><rect class="cls-14" x="393.86" y="30.82" width="159.41" height="54.47"/></clipPath><clipPath id="clippath-4"><rect class="cls-14" x="88.56" y="85.89" width="168.42" height="30.64"/></clipPath><clipPath id="clippath-5"><rect class="cls-14" x="691.23" y="29.44" width="168.42" height="87.13"/></clipPath><clipPath id="clippath-6"><rect class="cls-14" x="393.6" y="85.62" width="160.49" height="31.04"/></clipPath><clipPath id="clippath-7"><rect class="cls-14" x="88.55" y="31.04" width="168.02" height="54.22"/></clipPath><clipPath id="clippath-8"><rect class="cls-14" x="257.67" y="31.04" width="135.38" height="54.22"/></clipPath><clipPath id="clippath-9"><rect class="cls-14" x="88.83" y=".5" width="195.03" height="30.54"/></clipPath><clipPath id="clippath-10"><rect class="cls-14" x="282.15" y=".5" width="191.83" height="29.55"/></clipPath><clipPath id="clippath-11"><rect class="cls-14" x="474.23" y=".5" width="193.09" height="30.54"/></clipPath><clipPath id="clippath-12"><rect class="cls-14" x="667.57" y=".5" width="191.83" height="30.54"/></clipPath><clipPath id="clippath-13"><rect class="cls-15" x=".5" y="121.25" width="85.29" height="202.41"/></clipPath><linearGradient id="Ikke-navngivet_forløb_49" x1="-160.49" y1="762.56" x2="-111.52" y2="762.56" gradientTransform="translate(287.5 2892.81) scale(1.8 -3.5)" gradientUnits="userSpaceOnUse"><stop offset="0" stop-color="#005a4e"/><stop offset="1" stop-color="#005a4e"/></linearGradient><clipPath id="clippath-14"><rect class="cls-15" x="1.02" y="324.95" width="84.88" height="126.66"/></clipPath><linearGradient id="Ikke-navngivet_forløb_49-2" x1="-160.42" y1="788.43" x2="-111.45" y2="788.43" gradientTransform="translate(286.52 2115.97) scale(1.79 -2.19)" xlink:href="#Ikke-navngivet_forløb_49"/><clipPath id="clippath-15"><rect class="cls-15" x=".52" y="452.59" width="85.34" height="188.58"/></clipPath><linearGradient id="Ikke-navngivet_forløb_49-3" x1="-160.49" y1="765.73" x2="-111.52" y2="765.73" gradientTransform="translate(287.69 3045.22) scale(1.8 -3.26)" xlink:href="#Ikke-navngivet_forløb_49"/><clipPath id="clippath-16"><rect class="cls-15" x="560.07" y="674.19" width="137.82" height="55.17"/></clipPath><linearGradient id="Ikke-navngivet_forløb_47" x1="-125.81" y1="849.53" x2="-125.81" y2="909.88" gradientTransform="translate(876.34 1526.93) scale(1.97 -.94)" gradientUnits="userSpaceOnUse"><stop offset="0" stop-color="#21005a"/><stop offset="1" stop-color="#21005a"/></linearGradient><clipPath id="clippath-17"><rect class="cls-15" x="386.52" y="673.66" width="172.69" height="55.71"/></clipPath><linearGradient id="Ikke-navngivet_forløb_47-2" x1="-128.22" y1="849.52" x2="-128.22" y2="910.45" gradientTransform="translate(788.74 1526.93) scale(2.46 -.94)" xlink:href="#Ikke-navngivet_forløb_47"/><clipPath id="clippath-18"><rect class="cls-15" x="248.04" y="676.08" width="138.8" height="53.29"/></clipPath><linearGradient id="Ikke-navngivet_forløb_47-3" x1="-191.31" y1="849.55" x2="-191.31" y2="907.84" gradientTransform="translate(788.74 1526.93) scale(2.46 -.94)" xlink:href="#Ikke-navngivet_forløb_47"/><clipPath id="clippath-19"><rect class="cls-15" x="698.68" y="643.65" width="160.8" height="85.72"/></clipPath><linearGradient id="Ikke-navngivet_forløb_49-4" x1="-127.51" y1="791.64" x2="-127.51" y2="850.94" gradientTransform="translate(1071.57 1904.55) scale(2.29 -1.48)" xlink:href="#Ikke-navngivet_forløb_49"/><clipPath id="clippath-20"><rect class="cls-15" x="560.07" y="643.65" width="137.82" height="32.43"/></clipPath><linearGradient id="Ikke-navngivet_forløb_49-5" x1="-125.81" y1="906.66" x2="-125.81" y2="942.13" gradientTransform="translate(876.34 1526.93) scale(1.97 -.94)" xlink:href="#Ikke-navngivet_forløb_49"/><clipPath id="clippath-21"><rect class="cls-15" x="386.84" y="643.65" width="172.35" height="32.43"/></clipPath><linearGradient id="Ikke-navngivet_forløb_49-6" x1="-205.14" y1="906.66" x2="-205.14" y2="942.13" gradientTransform="translate(876.34 1526.93) scale(1.97 -.94)" xlink:href="#Ikke-navngivet_forløb_49"/><clipPath id="clippath-22"><rect class="cls-15" x="248.04" y="643.65" width="138.66" height="32.43"/></clipPath><linearGradient id="Ikke-navngivet_forløb_49-7" x1="-284.3" y1="906.66" x2="-284.3" y2="942.13" gradientTransform="translate(876.34 1526.93) scale(1.97 -.94)" xlink:href="#Ikke-navngivet_forløb_49"/><clipPath id="clippath-23"><rect class="cls-15" x="94.82" y="643.65" width="153.22" height="85.72"/></clipPath><linearGradient id="Ikke-navngivet_forløb_49-8" x1="-137.45" y1="791.78" x2="-137.45" y2="851.08" gradientTransform="translate(381.62 1904.77) scale(1.53 -1.48)" xlink:href="#Ikke-navngivet_forløb_49"/></defs><g id="Lag_1-2"><g id="Football-field"><g class="cls-19"><path class="cls-12" d="m107.82,616.88h734.68V146.77H107.82v470.11Z"/></g><rect class="cls-15" x="109.37" y="148.4" width="731.58" height="466.86"/><path class="cls-16" d="m109.37,615.26h731.58V148.4H109.37v466.86Z"/><path class="cls-15" d="m128.41,595.22h692.02V165.31H128.41v429.9Z"/><path class="cls-16" d="m128.41,595.22h692.02V165.31H128.41v429.9Z"/><path class="cls-15" d="m128.41,466.39h79.12v-178.1h-79.12v178.1Z"/><path class="cls-16" d="m128.41,466.39h79.12v-178.1h-79.12v178.1Z"/><path class="cls-15" d="m128.41,416.65h30.45v-71.24h-30.45v71.24Z"/><path class="cls-16" d="m128.41,416.65h30.45v-71.24h-30.45v71.24Z"/><path class="cls-15" d="m523.23,375.22c0-27.98-21.66-50.67-48.37-50.67s-48.39,22.68-48.39,50.67,21.66,50.68,48.39,50.68,48.37-22.68,48.37-50.68Z"/><path class="cls-16" d="m523.23,375.22c0-27.98-21.66-50.67-48.37-50.67s-48.39,22.68-48.39,50.67,21.66,50.68,48.39,50.68,48.37-22.68,48.37-50.68Z"/><path class="cls-16" d="m475.83,165.39v429.92"/><path class="cls-15" d="m207.53,404.99c12.96,0,23.46-11.01,23.46-24.57h0c0-15.27-10.5-27.64-23.46-27.64h0v52.21Z"/><path class="cls-16" d="m207.53,404.99c12.96,0,23.46-11.01,23.46-24.57h0c0-15.27-10.5-27.64-23.46-27.64h0v52.21Z"/><path class="cls-15" d="m820.32,466.39h-79.11v-178.1h79.11v178.1Z"/><path class="cls-16" d="m820.32,466.39h-79.11v-178.1h79.11v178.1Z"/><path class="cls-15" d="m820.32,416.65h-30.43v-71.24h30.43v71.24Z"/><path class="cls-16" d="m820.32,416.65h-30.43v-71.24h30.43v71.24Z"/><path class="cls-15" d="m741.21,404.99c-12.95,0-23.46-11.01-23.46-24.57h0c0-15.27,10.51-27.64,23.46-27.64h0v52.21Z"/><path class="cls-16" d="m741.21,404.99c-12.95,0-23.46-11.01-23.46-24.57h0c0-15.27,10.51-27.64,23.46-27.64h0v52.21Z"/></g><g onclick="javascript:{                 var event = document.createEvent(&apos;Event&apos;);                 event.initEvent(&apos;sectionClicked&apos;, true, true);                                  this.dispatchEvent(event);}"><rect class="cls-20" x="257.92" y="85.75" width="135.39" height="30.94"/><g class="cls-24"><path class="cls-14" d="m256.47,117.09h138.29v-31.74h-138.29v31.74Z"/></g><rect class="cls-15" x="257.92" y="85.75" width="135.39" height="30.94"/><path class="cls-17" d="m257.92,116.69h135.39v-30.94h-135.39v30.94Z"/></g><g onclick="javascript:{                 var event = document.createEvent(&apos;Event&apos;);                 event.initEvent(&apos;sectionClicked&apos;, true, true);                 this.dispatchEvent(event);}"><rect class="cls-20" x="554.27" y="30.87" width="136.09" height="85.72"/><g class="cls-27"><path class="cls-14" d="m552.81,117.71h139V29.76h-139v87.95Z"/></g><rect class="cls-15" x="554.27" y="30.87" width="136.09" height="85.72"/><path class="cls-17" d="m554.27,116.6h136.09V30.87h-136.09v85.72Z"/></g><g onclick="javascript:{                 var event = document.createEvent(&apos;Event&apos;);                 event.initEvent(&apos;sectionClicked&apos;, true, true);                 this.dispatchEvent(event);}"><rect class="cls-20" x="393.86" y="30.82" width="159.41" height="54.47"/><g class="cls-26"><path class="cls-14" d="m392.16,86h162.82V30.12h-162.82v55.89Z"/></g><rect class="cls-15" x="393.86" y="30.82" width="159.41" height="54.47"/><path class="cls-17" d="m393.86,85.29h159.41V30.82h-159.41v54.47Z"/></g><g onclick="javascript:{                 var event = document.createEvent(&apos;Event&apos;);                 event.initEvent(&apos;sectionClicked&apos;, true, true);                 this.dispatchEvent(event);}"><rect class="cls-20" x="88.56" y="85.89" width="168.42" height="30.64"/><g class="cls-25"><path class="cls-14" d="m88.56,116.53h168.42v-30.64H88.56v30.64Z"/></g><rect class="cls-15" x="88.56" y="85.89" width="168.42" height="30.64"/><path class="cls-17" d="m88.56,116.53h168.42v-30.64H88.56v30.64Z"/></g><g onclick="javascript:{                 var event = document.createEvent(&apos;Event&apos;);                 event.initEvent(&apos;sectionClicked&apos;, true, true);                 this.dispatchEvent(event);}"><rect class="cls-20" x="691.23" y="29.44" width="168.42" height="87.13"/><g class="cls-31"><path class="cls-14" d="m689.43,117.7h172.02V28.31h-172.02v89.39Z"/></g><rect class="cls-15" x="691.23" y="29.44" width="168.42" height="87.13"/><path class="cls-17" d="m691.23,116.57h168.42V29.44h-168.42v87.13Z"/></g><g onclick="javascript:{                 var event = document.createEvent(&apos;Event&apos;);                 event.initEvent(&apos;sectionClicked&apos;, true, true);                 this.dispatchEvent(event);}"><rect class="cls-20" x="393.6" y="85.62" width="160.49" height="31.04"/><g class="cls-30"><path class="cls-14" d="m391.88,117.06h163.92v-31.85h-163.92v31.85Z"/></g><rect class="cls-15" x="393.6" y="85.62" width="160.49" height="31.04"/><path class="cls-17" d="m393.6,116.66h160.49v-31.04h-160.49v31.04Z"/></g><g onclick="javascript:{                 var event = document.createEvent(&apos;Event&apos;);                 event.initEvent(&apos;sectionClicked&apos;, true, true);                 this.dispatchEvent(event);}"><rect class="cls-20" x="88.55" y="31.04" width="168.02" height="54.22"/><g class="cls-28"><path class="cls-14" d="m88.55,85.25h168.02V31.04H88.55v54.22Z"/></g><rect class="cls-15" x="88.55" y="31.04" width="168.02" height="54.22"/><path class="cls-17" d="m88.55,85.25h168.02V31.04H88.55v54.22Z"/></g><g onclick="javascript:{                 var event = document.createEvent(&apos;Event&apos;);                 event.initEvent(&apos;sectionClicked&apos;, true, true);                 this.dispatchEvent(event);}"><rect class="cls-20" x="257.67" y="31.04" width="135.38" height="54.22"/><g class="cls-29"><path class="cls-14" d="m256.22,85.95h138.27V30.33h-138.27v55.62Z"/></g><rect class="cls-15" x="257.67" y="31.04" width="135.38" height="54.22"/><path class="cls-17" d="m257.67,85.25h135.38V31.04h-135.38v54.22Z"/></g><g onclick="javascript:{                 var event = document.createEvent(&apos;Event&apos;);                 event.initEvent(&apos;sectionClicked&apos;, true, true);                 this.dispatchEvent(event);}"><rect class="cls-20" x="88.83" y=".5" width="195.03" height="30.54"/><g class="cls-32"><path class="cls-14" d="m86.74,31.43h199.2V.1H86.74v31.33Z"/></g><rect class="cls-15" x="88.83" y=".5" width="195.03" height="30.54"/><path class="cls-17" d="m88.83,31.04h195.03V.5H88.83v30.54Z"/></g><g onclick="javascript:{                 var event = document.createEvent(&apos;Event&apos;);                 event.initEvent(&apos;sectionClicked&apos;, true, true);                 this.dispatchEvent(event);}"><rect class="cls-20" x="282.15" y=".5" width="191.83" height="29.55"/><g class="cls-40"><path class="cls-14" d="m280.1,30.44h195.93V.12h-195.93v30.32Z"/></g><rect class="cls-15" x="282.15" y=".5" width="191.83" height="29.55"/><path class="cls-14" d="m282.15,30.05h191.83V.5h-191.83v29.55Z"/></g><g onclick="javascript:{                 var event = document.createEvent(&apos;Event&apos;);                 event.initEvent(&apos;sectionClicked&apos;, true, true);                 this.dispatchEvent(event);}"><rect class="cls-20" x="474.23" y=".5" width="193.09" height="30.54"/><g class="cls-45"><path class="cls-14" d="m472.16,31.43h197.22V.1h-197.22v31.33Z"/></g><rect class="cls-15" x="474.23" y=".5" width="193.09" height="30.54"/><path class="cls-14" d="m474.23,31.04h193.09V.5h-193.09v30.54Z"/></g><g onclick="javascript:{                 var event = document.createEvent(&apos;Event&apos;);                 event.initEvent(&apos;sectionClicked&apos;, true, true);                 this.dispatchEvent(event);}"><rect class="cls-20" x="667.57" y=".5" width="191.83" height="30.54"/><g class="cls-39"><path class="cls-14" d="m665.52,31.43h195.93V.1h-195.93v31.33Z"/></g><rect class="cls-15" x="667.57" y=".5" width="191.83" height="30.54"/><path class="cls-14" d="m667.57,31.04h191.83V.5h-191.83v30.54Z"/></g><g id="M-sektion"><g onclick="javascript:{                 var event = document.createEvent(&apos;Event&apos;);                 event.initEvent(&apos;sectionClicked&apos;, true, true);                 this.dispatchEvent(event);}"><g class="cls-38"><path class="cls-13" d="m-.85,326.28h87.98V118.62H-.85v207.66Z"/></g><rect class="cls-15" x=".5" y="121.25" width="85.29" height="202.41"/><path class="cls-1" d="m.5,323.65h85.29V121.25H.5v202.41Z"/></g><text class="cls-21" transform="translate(9.09 236.64) scale(1.33 1)"><tspan x="0" y="0">M</tspan></text></g><g id="MF-sektion"><g onclick="javascript:{                 var event = document.createEvent(&apos;Event&apos;);                 event.initEvent(&apos;sectionClicked&apos;, true, true);                 this.dispatchEvent(event);}"><g class="cls-37"><path class="cls-5" d="m-.32,453.25h87.56v-129.94H-.32v129.94Z"/></g><rect class="cls-15" x="1.02" y="324.95" width="84.88" height="126.66"/><path class="cls-1" d="m1.02,451.6h84.88v-126.66H1.02v126.66Z"/></g><text class="cls-22" transform="translate(14.94 395.46) scale(1.33 1)"><tspan x="0" y="0">MF</tspan></text></g><g id="L-sektion"><g onclick="javascript:{                 var event = document.createEvent(&apos;Event&apos;);                 event.initEvent(&apos;sectionClicked&apos;, true, true);                 this.dispatchEvent(event);}"><g class="cls-41"><path class="cls-6" d="m-.83,643.62h88.03v-193.48H-.83v193.48Z"/></g><rect class="cls-15" x=".52" y="452.59" width="85.34" height="188.58"/><path class="cls-1" d="m.52,641.17h85.34v-188.58H.52v188.58Z"/></g><text class="cls-21" transform="translate(27.69 566.28) scale(1.33 1)"><tspan x="0" y="0">L</tspan></text></g><g id="bottom"><g onclick="javascript:{                 var event = document.createEvent(&apos;Event&apos;);                 event.initEvent(&apos;sectionClicked&apos;, true, true);                 this.dispatchEvent(event);}"><g class="cls-43"><path class="cls-11" d="m558.6,730.08h140.77v-56.61h-140.77v56.61Z"/></g><rect class="cls-15" x="560.07" y="674.19" width="137.82" height="55.17"/><path class="cls-1" d="m560.07,729.37h137.82v-55.17h-137.82v55.17Z"/></g><g onclick="javascript:{                 var event = document.createEvent(&apos;Event&apos;);                 event.initEvent(&apos;sectionClicked&apos;, true, true);                 this.dispatchEvent(event);}"><g class="cls-42"><path class="cls-2" d="m384.68,730.09h176.39v-57.15h-176.39v57.15Z"/></g><rect class="cls-15" x="386.52" y="673.66" width="172.69" height="55.71"/><path class="cls-1" d="m386.52,729.37h172.69v-55.71h-172.69v55.71Z"/></g><g onclick="javascript:{                 var event = document.createEvent(&apos;Event&apos;);                 event.initEvent(&apos;sectionClicked&apos;, true, true);                 this.dispatchEvent(event);}"><g class="cls-46"><path class="cls-3" d="m246.55,730.06h141.77v-54.68h-141.77v54.68Z"/></g><rect class="cls-15" x="248.04" y="676.08" width="138.8" height="53.29"/><path class="cls-1" d="m248.04,729.37h138.8v-53.29h-138.8v53.29Z"/></g></g><g id="G-sektion"><g onclick="javascript:{                 var event = document.createEvent(&apos;Event&apos;);                 event.initEvent(&apos;sectionClicked&apos;, true, true);                 this.dispatchEvent(event);}"><g class="cls-44"><path class="cls-7" d="m696.96,730.48h164.24v-87.95h-164.24v87.95Z"/></g><rect class="cls-15" x="698.68" y="643.65" width="160.8" height="85.72"/><path class="cls-1" d="m698.68,729.37h160.8v-85.72h-160.8v85.72Z"/></g><text class="cls-21" transform="translate(746.48 710.99) scale(1.33 1)"><tspan x="0" y="0">G</tspan></text></g><g id="H-sektion"><g onclick="javascript:{                 var event = document.createEvent(&apos;Event&apos;);                 event.initEvent(&apos;sectionClicked&apos;, true, true);                 this.dispatchEvent(event);}"><g class="cls-33"><path class="cls-9" d="m558.6,676.5h140.77v-33.27h-140.77v33.27Z"/></g><rect class="cls-15" x="560.07" y="643.65" width="137.82" height="32.43"/><path class="cls-1" d="m560.07,676.08h137.82v-32.43h-137.82v32.43Z"/></g><text class="cls-23" transform="translate(570.77 669.81) scale(1.22 1)"><tspan x="0" y="0">H- ned</tspan><tspan class="cls-18" x="73.19" y="0">r</tspan><tspan class="cls-47" x="81.5" y="0">e</tspan></text></g><g id="I-sektion"><g onclick="javascript:{                 var event = document.createEvent(&apos;Event&apos;);                 event.initEvent(&apos;sectionClicked&apos;, true, true);                 this.dispatchEvent(event);}"><g class="cls-34"><path class="cls-10" d="m384.99,676.5h176.04v-33.27h-176.04v33.27Z"/></g><rect class="cls-15" x="386.84" y="643.65" width="172.35" height="32.43"/><path class="cls-1" d="m386.84,676.08h172.35v-32.43h-172.35v32.43Z"/></g><text class="cls-23" transform="translate(411.62 670.1) scale(1.22 1)"><tspan x="0" y="0">I- ned</tspan><tspan class="cls-18" x="62.36" y="0">r</tspan><tspan class="cls-47" x="70.67" y="0">e</tspan></text></g><g id="J-sektion"><g onclick="javascript:{                 var event = document.createEvent(&apos;Event&apos;);                 event.initEvent(&apos;sectionClicked&apos;, true, true);                 this.dispatchEvent(event);}"><g class="cls-36"><path class="cls-8" d="m246.55,676.5h141.63v-33.27h-141.63v33.27Z"/></g><rect class="cls-15" x="248.04" y="643.65" width="138.66" height="32.43"/><path class="cls-1" d="m248.04,676.08h138.66v-32.43h-138.66v32.43Z"/></g><text class="cls-23" transform="translate(257.92 669.81) scale(1.22 1)"><tspan x="0" y="0">J- ned</tspan><tspan class="cls-48" x="65.79" y="0">r</tspan><tspan x="74.11" y="0">e</tspan></text></g><g id="K-section"><g onclick="javascript:{                 var event = document.createEvent(&apos;Event&apos;);                 event.initEvent(&apos;sectionClicked&apos;, true, true);                 this.dispatchEvent(event);}"><g class="cls-35"><path class="cls-4" d="m93.18,730.48h156.49v-87.95H93.18v87.95Z"/></g><rect class="cls-15" x="94.82" y="643.65" width="153.22" height="85.72"/><path class="cls-1" d="m94.82,729.37h153.22v-85.72H94.82v85.72Z"/></g><text class="cls-21" transform="translate(143.63 710.99) scale(1.33 1)"><tspan x="0" y="0">K</tspan></text></g></g></svg>